<svg xmlns="http://www.w3.org/2000/svg" width="46" height="46" viewBox="0 0 46 46" fill="none">
    <path d="M22.91 16.9031L21.8615 21.1006C23.048 21.3957 26.7088 22.6032 27.301 20.2266C27.9182 17.7522 24.0945 17.2002 22.91 16.9031ZM21.3345 23.2204L20.1787 27.8492C21.6028 28.2037 25.9996 29.6144 26.6494 27.0039C27.3298 24.2784 22.7605 23.575 21.3345 23.2204Z" fill="#F7931A"/>
    <path d="M27.6403 4.40643C17.3727 1.84768 6.97864 8.09601 4.41989 18.3636C1.85923 28.6273 8.10756 39.0253 18.3675 41.5859C28.6351 44.1447 39.0349 37.8983 41.5917 27.6307C44.1524 17.365 37.9041 6.96709 27.6403 4.40643ZM31.4564 20.2668C31.1785 22.1337 30.1416 23.0364 28.7692 23.3546C30.6571 24.3359 31.6155 25.8424 30.7031 28.4548C29.5685 31.6959 26.8736 31.97 23.2856 31.2915L22.4155 34.7798L20.3148 34.2566L21.1716 30.8181C20.6111 30.6781 20.052 30.5324 19.4945 30.3811L18.6339 33.8388L16.5351 33.3117L17.4053 29.8176C16.9127 29.6911 16.4144 29.5569 15.9065 29.4304L13.1676 28.75L14.2141 26.3427C14.2141 26.3427 15.7627 26.7548 15.7416 26.7241C16.3377 26.8717 16.6003 26.4845 16.7038 26.2238L18.0819 20.7134L18.3023 20.769C18.2312 20.7403 18.1582 20.7166 18.0838 20.6981L19.0651 16.7632C19.0901 16.3147 18.9386 15.7512 18.0857 15.5384C18.1202 15.5173 16.5581 15.1589 16.5581 15.1589L17.1159 12.9126L20.0177 13.6371L20.0158 13.6467C20.4509 13.7559 20.8994 13.8594 21.3575 13.9629L22.2181 10.5091L24.3206 11.0323L23.4773 14.4172C24.0408 14.5456 24.6101 14.6759 25.1621 14.8139L26.0016 11.4502L28.1041 11.9734L27.2436 15.4273C29.8962 16.3453 31.8359 17.7177 31.4564 20.2668Z" fill="#F7931A"/>
</svg>